<svg width="225" height="125" viewBox="0 0 225 125" fill="none" xmlns="http://www.w3.org/2000/svg">
<rect x="9" y="29" width="207" height="66" rx="14" stroke="#EB5E29" stroke-width="10"/>
<rect x="21" y="41" width="43" height="8" rx="4" fill="#EB5E29"/>
<rect x="38" y="45" width="9" height="21" rx="4" fill="#EB5E29"/>
<rect x="75" y="56" width="24.1915" height="8" rx="4" transform="rotate(30 75 56)" fill="#EB5E29"/>
<rect width="24.1915" height="8" rx="4" transform="matrix(-0.866025 0.5 0.5 0.866025 111.95 56)" fill="#EB5E29"/>
<rect x="89" y="67" width="9" height="16" rx="4" fill="#EB5E29"/>
<rect x="89" y="41" width="26" height="8" rx="4" fill="#EB5E29"/>
<rect x="49" y="75" width="29" height="8" rx="4" fill="#EB5E29"/>
<rect x="21" y="75" width="20" height="8" rx="4" fill="#EB5E29"/>
<rect x="52" y="58" width="16" height="8" rx="4" fill="#EB5E29"/>
<rect x="70" y="41" width="11" height="8" rx="4" fill="#EB5E29"/>
<rect x="105" y="75" width="10" height="8" rx="4" fill="#EB5E29"/>
<rect x="142" y="49" width="9" height="26" rx="4" fill="#EB5E29"/>
<rect x="129" y="56" width="9" height="11" rx="4" fill="#EB5E29"/>
<rect x="155" y="42" width="9" height="40" rx="4" fill="#EB5E29"/>
<rect x="168" y="52" width="9" height="19" rx="4" fill="#EB5E29"/>
<rect x="181" y="44" width="9" height="35" rx="4" fill="#EB5E29"/>
<rect x="194" y="51" width="9" height="22" rx="4" fill="#EB5E29"/>
</svg>
