<svg width="300" height="180" viewBox="0 0 300 180" fill="none" xmlns="http://www.w3.org/2000/svg">
<path d="M250 120C255.519 120 260 124.481 260 130C260 135.519 255.519 140 250 140C244.481 140 240 135.519 240 130C240 124.481 244.481 120 250 120Z" fill="#EB5E29"/>
<path d="M110 120H170C175.519 120 180 124.481 180 130C180 135.519 175.519 140 170 140H110C104.481 140 100 135.519 100 130C100 124.481 104.481 120 110 120Z" fill="#EB5E29"/>
<path d="M100 60V90C100 95.519 95.519 100 90 100C84.481 100 80 95.519 80 90V60H51.18C45.01 60 40 55.519 40 50C40 44.481 45.01 40 51.18 40H128.82C134.99 40 140 44.481 140 50C140 55.519 134.99 60 128.82 60H100Z" fill="#EB5E29"/>
<path d="M210 40H250C255.519 40 260 44.481 260 50C260 55.519 255.519 60 250 60H210C204.481 60 200 55.519 200 50C200 44.481 204.481 40 210 40Z" fill="#EB5E29"/>
<path d="M125 80H141C146.519 80 151 84.481 151 90C151 95.519 146.519 100 141 100H125C119.481 100 115 95.519 115 90C115 84.481 119.481 80 125 80Z" fill="#EB5E29"/>
<path d="M210 100C215.519 100 220 104.481 220 110V130C220 135.519 215.519 140 210 140C204.481 140 200 135.519 200 130V110C200 104.481 204.481 100 210 100Z" fill="#EB5E29"/>
<path d="M207.192 98.6788L239.958 75.7358C244.478 72.5702 250.719 73.6706 253.885 78.1915C257.05 82.7124 255.95 88.9532 251.429 92.1188L218.663 115.062C214.142 118.227 207.901 117.127 204.736 112.606C201.57 108.085 202.671 101.844 207.192 98.6788Z" fill="#EB5E29"/>
<path d="M213.429 98.6788L180.663 75.7358C176.142 72.5702 169.901 73.6706 166.736 78.1915C163.57 82.7124 164.671 88.9532 169.192 92.1188L201.958 115.062C206.478 118.227 212.719 117.127 215.885 112.606C219.05 108.085 217.95 101.844 213.429 98.6788Z" fill="#EB5E29"/>
<path d="M50 120H70C75.519 120 80 124.481 80 130C80 135.519 75.519 140 70 140H50C44.481 140 40 135.519 40 130C40 124.481 44.481 120 50 120Z" fill="#EB5E29"/>
<path d="M165 40H170C175.519 40 180 44.481 180 50C180 55.519 175.519 60 170 60H165C159.481 60 155 55.519 155 50C155 44.481 159.481 40 165 40Z" fill="#EB5E29"/>
<path d="M50 80H55C60.519 80 65 84.481 65 90C65 95.519 60.519 100 55 100H50C44.481 100 40 95.519 40 90C40 84.481 44.481 80 50 80Z" fill="#EB5E29"/>
<path d="M20 120H0V50C0 22.404 22.404 0 50 0H250C277.596 0 300 22.404 300 50V130C300 157.596 277.596 180 250 180H50C22.404 180 0 157.596 0 130V110H20V130C20 146.557 33.443 160 50 160H250C266.557 160 280 146.557 280 130V50C280 33.443 266.557 20 250 20H50C33.443 20 20 33.443 20 50V120Z" fill="#EB5E29"/>
</svg>
