<svg width="933" height="933" viewBox="0 0 933 933" fill="none" xmlns="http://www.w3.org/2000/svg">
<g clip-path="url(#clip0_54_40)">
<path fill-rule="evenodd" clip-rule="evenodd" d="M699.75 0C855.25 0 933 77.75 933 233.25V699.75C933 855.25 855.25 933 699.75 933H233.25C77.75 933 0 855.25 0 699.75L0.0146484 229.62C1.21987 76.54 78.9647 0 233.25 0H699.75ZM416.46 346.533L538.088 662.009L529.731 684.513C525.65 696.35 520.548 705.33 514.425 711.453C508.71 717.576 502.179 721.657 494.832 723.698C487.485 726.147 478.913 727.372 469.116 727.372H424.419V789.213C432.583 791.662 441.155 793.294 450.135 794.11C459.523 795.335 469.524 795.947 480.137 795.947C505.036 795.947 525.854 789.621 542.59 776.967C559.325 764.313 573.204 744.107 584.225 716.351L732.396 346.533H655.249L573.327 567.121L495.444 346.533H416.46ZM270.832 252.242V346.533H212.666V408.985H270.832V649H345.53V408.985H403.697V346.533H345.53V252.242H270.832Z" fill="black"/>
</g>
<defs>
<clipPath id="clip0_54_40">
<rect width="933" height="933" fill="white"/>
</clipPath>
</defs>
</svg>
