<svg width="64" height="64" viewBox="0 0 64 64" fill="none" xmlns="http://www.w3.org/2000/svg">
   <g clip-path="url(#clip0_2_58)">
      <path d="M0 16C0 5.33333 5.33333 0 16 0H48C58.6667 0 64 5.33333 64 16V48C64 58.6667 58.6667 64 48 64H16C5.33333 64 0 58.6667 0 48" fill="#252422"/>
      <path d="M14.588 24.252H27.692V28.536H14.588V24.252ZM23.702 45H18.578V17.784H23.702V45Z" fill="#EB5E29"/>
      <path d="M33.9855 24.252L40.7475 43.404L37.9755 48.654L28.5675 24.252H33.9855ZM29.1135 54.618V50.376H32.1795C32.8515 50.376 33.4395 50.292 33.9435 50.124C34.4475 49.984 34.8955 49.704 35.2875 49.284C35.7075 48.864 36.0575 48.248 36.3375 47.436L44.9475 24.252H50.2394L40.0755 49.62C39.3195 51.524 38.3674 52.91 37.2194 53.778C36.0714 54.646 34.6434 55.08 32.9354 55.08C32.2074 55.08 31.5215 55.038 30.8775 54.954C30.2615 54.898 29.6735 54.786 29.1135 54.618Z" fill="#EB5E29"/>
   </g>
   <defs>
      <clipPath id="clip0_2_58">
         <rect width="64" height="64" fill="white"/>
      </clipPath>
   </defs>
</svg>
